Coordinates
version=1
nRows=19
nColumns=33
inDegrees=yes

Units are S.I. units (second, meters, Newtons, ...)
Angles are in degrees.

endheader
time	ground_thorax_rot_x	ground_thorax_rot_y	ground_thorax_rot_z	ground_thorax_tx	ground_thorax_ty	ground_thorax_tz	clav_prot_r	clav_elev_r	scapula_abduction_r	scapula_elevation_r	scapula_upward_rot_r	scapula_winging_r	shoulder_elv_r	plane_of_elev_r	axial_rot_r	elbow_flexion_r	pro_sup_r	wrist_flex_r	wrist_dev_r	clav_prot_l	clav_elev_l	scapula_abduction_l	scapula_elevation_l	scapula_upward_rot_l	scapula_winging_l	shoulder_elv_l	plane_of_elev_l	axial_rot_l	elbow_flexion_l	pro_sup_l	wrist_flex_l	wrist_dev_l
      9.05000000	     31.93049592	     24.79061070	     31.94038385	   -102.21157991	    848.79207078	    -47.91872775	     11.74217924	     33.40907140	     23.20423610	     45.00000000	    -45.00000000	    633.18535540	   1513.27692142	     23.55530223	    179.99999979	   3602.32048088	   -177.86935041	     18.19998299	     13.86441057	     -6.93697009	    -45.00000000	    -39.04060762	     45.00000000	    -45.00000000	   5506.24504296	  -4048.48735293	    134.30812450	   -126.95235894	   2869.75662272	     39.26235506	     14.87591502	    -19.20808620
      9.06000000	     31.73522603	     24.87516292	     32.37874229	   -101.50331768	    848.78698251	    -48.03080940	     11.60639828	     33.12997022	     23.30462185	     45.00000000	    -45.00000000	    633.28135958	   1513.32638437	     23.32979334	    179.99999979	   3602.46011844	   -177.60924381	     18.26840262	     13.62108339	     -6.74159324	    -45.00000000	    -39.21042127	     45.00000000	    -45.00000000	   5506.29978323	  -4048.61232185	    134.36737721	   -126.18838060	   2869.91436001	     39.28815001	     14.49527351	    -18.76889611
      9.07000000	     31.83522718	     24.63393670	     32.17347121	   -100.89006195	    848.76794909	    -48.18249799	     11.60403141	     33.48232803	     23.28885488	     45.00000000	    -45.00000000	    633.27822097	   1513.30444789	     23.54875107	    179.99999979	   3602.27769938	   -177.22671854	     18.38900897	     13.67817838	     -6.91959323	    -45.00000000	    -38.96025271	     45.00000000	    -45.00000000	   5506.16351639	  -4048.40718894	    134.07487670	   -125.73629553	   2869.72419208	     39.25184936	     14.83130433	    -19.16643641
      9.08000000	     31.63151673	     24.81680639	     32.50549149	   -100.28385156	    848.73518078	    -48.32327263	     11.74049504	     32.99456813	     23.20890722	     45.00000000	    -45.00000000	    633.23611085	   1513.25574139	     23.42334066	    179.99999979	   3602.18806569	   -176.97447047	     18.59108660	     13.41012441	     -6.90690980	    -45.00000000	    -39.28896705	     45.00000000	    -45.00000000	   5506.09176852	  -4048.55366723	    134.21773534	   -125.28103328	   2869.86356927	     39.26062415	     14.38832899	    -18.64670480
      9.09000000	     31.77954149	     24.71644042	     32.29987413	    -99.97014231	    848.70190147	    -48.60240872	     11.56917278	     33.40525411	     23.34971572	     45.00000000	    -45.00000000	    633.20481836	   1513.24893108	     23.49744563	    179.99999979	   3602.16321900	   -176.63460002	     18.59008821	     13.41017554	     -6.99254504	    -45.00000000	    -39.05423942	     45.00000000	    -45.00000000	   5506.02553924	  -4048.37380225	    134.02919833	   -125.30076934	   2869.83726409	     39.21340583	     14.91187103	    -19.40342970
      9.10000000	     31.79159373	     24.69585159	     32.27905545	    -99.58420469	    848.65997921	    -48.85277482	     11.73350543	     33.21059903	     23.25487274	     45.00000000	    -45.00000000	    633.33690831	   1513.35221712	     23.54239483	    179.99999979	   3602.09607634	   -176.44610610	     18.75956793	     13.32321624	     -6.79148430	    -45.00000000	    -39.08046120	     45.00000000	    -45.00000000	   5506.05320492	  -4048.37213552	    133.94659564	   -125.34135157	   2869.89957490	     39.23228125	     15.16193186	    -19.76899805
      9.11000000	     31.75649298	     24.76163848	     32.41360229	    -99.02997707	    848.60892121	    -49.04811712	     11.63077108	     33.39780811	     23.40350900	     45.00000000	    -45.00000000	    633.19746476	   1513.30188586	     23.56805157	    179.99999979	   3602.07738735	   -176.27165915	     18.72119424	     13.27529498	     -6.88010649	    -45.00000000	    -39.13488078	     45.00000000	    -45.00000000	   5505.96285952	  -4048.37002685	    133.98779646	   -125.25691901	   2869.96505457	     39.29173972	     15.11663772	    -19.83805420
      9.12000000	     31.71833472	     24.75063572	     32.52676548	    -98.33265062	    848.55279271	    -49.20020863	     11.76940040	     33.16999522	     23.47668691	     45.00000000	    -45.00000000	    633.30530893	   1513.33107990	     23.46935283	    179.99999979	   3602.03560761	   -176.19814837	     18.93591466	     13.16404383	     -6.77979061	    -45.00000000	    -39.17357222	     45.00000000	    -45.00000000	   5505.97300948	  -4048.30116795	    133.94035464	   -125.01887909	   2870.02693132	     39.33015815	     15.38144105	    -20.23510266
      9.13000000	     31.70265430	     24.77169728	     32.67471209	    -97.48316333	    848.49185528	    -49.31427856	     11.72583035	     33.48635064	     23.63959171	     45.00000000	    -45.00000000	    633.12960952	   1513.30100254	     23.56744132	    179.99999979	   3601.97976990	   -176.11544542	     18.79059095	     13.20015332	     -6.88736100	    -45.00000000	    -39.09141960	     45.00000000	    -45.00000000	   5505.77724320	  -4048.21566116	    133.96381869	   -124.83263072	   2870.08607618	     39.40356646	     15.11310094	    -20.02932339
      9.14000000	     31.67592917	     24.68592681	     32.74268059	    -96.50245886	    848.42564613	    -49.39812464	     11.87451135	     32.97346837	     23.71571977	     45.00000000	    -45.00000000	    633.31262391	   1513.27497222	     23.48146630	    179.99999979	   3601.94214112	   -176.18145784	     19.21596470	     13.00728910	     -6.81347647	    -45.00000000	    -39.25056091	     45.00000000	    -45.00000000	   5505.92440485	  -4048.24929216	    133.79836612	   -124.35118648	   2870.18590641	     39.40019684	     15.66201590	    -20.73899994
      9.15000000	     31.74131493	     24.66276493	     32.83875438	    -95.39644745	    848.35192316	    -49.45849338	     11.79092833	     33.41571203	     23.81943483	     45.00000000	    -45.00000000	    633.07222222	   1513.34167808	     23.72000610	    179.99999979	   3601.74133581	   -176.20523303	     18.99731960	     13.10761300	     -6.96265854	    -45.00000000	    -39.02850146	     45.00000000	    -45.00000000	   5505.67542911	  -4048.22288345	    133.71709126	   -124.10484390	   2870.29397782	     39.48500046	     15.24055303	    -20.36124157
      9.16000000	     31.63730383	     24.72668246	     33.09095275	    -94.18769644	    848.26889084	    -49.49811072	     11.99251748	     33.24265464	     23.93897815	     45.00000000	    -45.00000000	    633.17892492	   1513.35526621	     23.60064981	    179.99999979	   3601.70224770	   -176.34051712	     19.17566803	     13.06633879	     -6.89969416	    -45.00000000	    -39.01087564	     45.00000000	    -45.00000000	   5505.56086545	  -4048.06887205	    133.67614203	   -123.74803215	   2870.24146956	     39.52557244	     15.44528554	    -20.61834464
      9.17000000	     31.60157722	     24.71939049	     33.28872966	    -92.87368371	    848.17394518	    -49.52063162	     11.95016821	     33.41271222	     24.28141440	     45.00000000	    -45.00000000	    633.05296762	   1513.22421341	     23.60146001	    179.99999979	   3601.66111748	   -176.49222740	     19.08859127	     13.05418620	     -7.01796515	    -45.00000000	    -38.94092009	     45.00000000	    -45.00000000	   5505.38351874	  -4047.99151687	    133.63867009	   -123.40101419	   2870.23774642	     39.57904017	     15.33187086	    -20.50766144
      9.18000000	     31.47841856	     24.78037130	     33.60728907	    -91.46298973	    848.06510105	    -49.52846674	     12.12822647	     33.23142941	     24.37458051	     45.00000000	    -45.00000000	    633.17567944	   1513.28605523	     23.53445568	    179.99999979	   3601.65456637	   -176.71659658	     19.25308991	     13.03433741	     -6.97467842	    -45.00000000	    -38.99161348	     45.00000000	    -45.00000000	   5505.35347873	  -4047.88838022	    133.61679693	   -122.93920141	   2870.29205990	     39.59023059	     15.53255781	    -20.79849492
      9.19000000	     31.42566199	     24.84596966	     33.79688704	    -89.94771677	    847.93942748	    -49.52520804	     11.93945581	     33.48125548	     24.37930826	     45.00000000	    -45.00000000	    633.08363537	   1513.31496233	     23.69122570	    179.99999979	   3601.39533455	   -176.97264805	     19.09219954	     13.03717501	     -6.92383412	    -45.00000000	    -39.00720630	     45.00000000	    -45.00000000	   5505.22958800	  -4047.92056691	    133.51014223	   -122.60473346	   2870.40577704	     39.64729788	     15.26689867	    -20.55107066
      9.20000000	     31.21995882	     24.96971246	     34.12328695	    -88.32884424	    847.79348530	    -49.51392393	     12.00172654	     33.15197253	     24.40679440	     45.00000000	    -45.00000000	    633.21661648	   1513.36910425	     23.66166702	    179.99999979	   3601.40269739	   -177.36035392	     19.36036150	     13.06030830	     -6.89913392	    -45.00000000	    -39.15877550	     45.00000000	    -45.00000000	   5505.14523841	  -4047.78555299	    133.44312731	   -122.17539622	   2870.32751494	     39.69799317	     15.65092868	    -20.99662223
      9.21000000	     31.19239864	     25.00840623	     34.36348542	    -86.61502989	    847.62370630	    -49.49773496	     11.96279014	     33.55891255	     24.61219100	     45.00000000	    -45.00000000	    633.13331786	   1513.32692250	     23.71800514	    179.99999979	   3601.16662346	   -177.73341678	     19.02429066	     13.08539255	     -6.81738252	    -45.00000000	    -39.06663723	     45.00000000	    -45.00000000	   5504.98487211	  -4047.82539460	    133.39932789	   -121.82377739	   2870.49278032	     39.79413465	     15.18576802	    -20.54061098
      9.22000000	     31.17989211	     24.90891599	     34.47714797	    -84.79906867	    847.42502351	    -49.47808689	     11.87235026	     33.39444159	     24.98081048	     45.00000000	    -45.00000000	    633.08770368	   1513.17724043	     23.74525517	    179.99999979	   3601.03138022	   -178.33235485	     19.23915506	     13.19820650	     -6.82875080	    -45.00000000	    -39.23281311	     45.00000000	    -45.00000000	   5505.12980231	  -4047.88721058	    133.16909526	   -121.26351392	   2870.60481262	     39.85549890	     15.48540827	    -20.95427447
      9.23000000	     31.03223740	     25.05153147	     34.79016930	    -82.88186028	    847.19371305	    -49.45577580	     11.86280073	     33.32802305	     25.10692809	     45.00000000	    -45.00000000	    633.10785986	   1513.16997715	     23.71504533	    179.99999979	   3600.88810770	   -178.93403037	     19.18056214	     13.30494790	     -6.70055403	    -45.00000000	    -39.32958648	     45.00000000	    -45.00000000	   5504.99402516	  -4047.88416199	    133.12940365	   -120.89338957	   2870.71375747	     40.00101214	     15.43458098	    -21.00383265
